<svg width="800" height="400" viewBox="0 0 800 400" xmlns="http://www.w3.org/2000/svg"><mask id="satori_om-id"><rect x="0" y="0" width="800" height="400" fill="#fff"/></mask><rect x="0" y="0" width="800" height="400" fill="#fff"/><clipPath id="satori_cp-id-0"><rect x="150" y="-63" width="500" height="300"/></clipPath><mask id="satori_om-id-0"><rect x="150" y="-63" width="500" height="300" fill="#fff"/></mask><image x="150" y="-63" width="500" height="300" href="data:image/svg+xml;utf8,%3Csvg  fill=%22%23000%22 xmlns=%22http://www.w3.org/2000/svg%22 width=%22428.5714285714286%22 height=%22300%22 viewBox=%220 0 500 350%22%3E%3Cg xmlns=%22http://www.w3.org/2000/svg%22 transform=%22translate(0.000000,500.000000) scale(0.100000,-0.100000)%22 fill=%22%23000000%22 stroke=%22none%22%3E%3Cpath d=%22M1883 2989 c-42 -12 -99 -71 -107 -111 -3 -17 -6 -176 -6 -354 l0 -323 27 -26 c38 -34 94 -34 128 0 23 22 25 31 25 125 0 56 4 100 9 98 5 -1 59 -48 120 -102 61 -55 126 -110 143 -123 66 -48 158 -17 158 54 0 39 -15 56 -158 176 l-82 68 62 52 c75 63 108 122 108 189 0 65 -19 107 -77 169 -84 90 -243 139 -350 108z m150 -180 c54 -15 87 -52 87 -98 0 -55 -47 -95 -147 -125 -23 -7 -23 -7 -23 113 0 136 -2 134 83 110z%22%3E%3C/path%3E%3Cpath d=%22M1330 2984 c-94 -18 -149 -46 -218 -112 -38 -37 -79 -85 -90 -107 -69 -137 -68 -275 2 -412 27 -55 115 -152 154 -172 22 -12 22 -14 22 -221 l0 -210 23 0 c29 0 63 35 130 133 60 87 184 252 238 315 46 53 54 83 34 122 -25 49 -86 52 -149 7 -39 -28 -126 -30 -178 -4 -163 81 -202 292 -77 416 84 85 205 94 308 25 40 -27 62 -20 86 26 25 49 19 83 -22 123 -51 52 -181 86 -263 71z%22%3E%3C/path%3E%3Cpath d=%22M2735 2981 c-116 -29 -234 -132 -276 -242 -21 -55 -24 -81 -24 -185 0 -117 1 -122 34 -186 62 -124 158 -195 294 -218 176 -31 344 56 424 218 38 75 38 77 38 196 0 111 -3 126 -27 179 -55 116 -146 199 -257 231 -56 16 -153 20 -206 7z m143 -171 c100 -22 162 -104 170 -226 6 -98 -15 -161 -73 -212 -68 -60 -136 -75 -216 -47 -98 35 -152 123 -152 245 0 144 80 238 210 249 7 1 34 -4 61 -9z%22%3E%3C/path%3E%3Cpath d=%22M3432 2955 c-59 -26 -62 -45 -62 -415 l0 -332 29 -29 c38 -37 88 -39 128 -5 l28 24 5 197 5 197 40 -57 c22 -31 61 -82 86 -113 25 -32 78 -100 117 -153 40 -53 83 -101 97 -107 41 -19 81 -14 114 14 l31 26 0 351 0 351 -27 28 c-19 20 -37 28 -61 28 -83 0 -92 -26 -92 -289 -1 -160 -3 -201 -12 -186 -6 11 -55 79 -108 150 -53 72 -123 170 -156 219 -51 77 -93 117 -121 116 -4 -1 -23 -7 -41 -15z%22%3E%3C/path%3E%3C/g%3E%3C/svg%3E" preserveAspectRatio="none" clip-path="url(#satori_cp-id-0)" mask="url(#satori_om-id-0)"/><mask id="satori_om-id-0-0"><rect x="150" y="-63" width="0" height="300" fill="#fff"/></mask><mask id="satori_om-id-0-0-0"><rect x="150" y="-63" width="0" height="300" fill="#fff"/></mask><mask id="satori_om-id-0-0-1"><rect x="150" y="-63" width="0" height="300" fill="#fff"/></mask><mask id="satori_om-id-0-0-2"><rect x="150" y="-63" width="0" height="300" fill="#fff"/></mask><mask id="satori_om-id-0-0-3"><rect x="150" y="-63" width="0" height="300" fill="#fff"/></mask><mask id="satori_om-id-1"><rect x="171" y="252" width="458" height="29" fill="#fff"/></mask><g opacity="0.6"></g><path fill="black" d="M184.3 274.5L172.5 274.5L172.5 257.0L184.3 257.0L184.3 260.1L176.2 260.1L176.2 264.2L183.7 264.2L183.7 267.3L176.2 267.3L176.2 271.4L184.3 271.4L184.3 274.5ZM190.9 274.7L190.9 274.7Q189.6 274.7 188.7 274.3Q187.7 273.8 187.1 273.0Q186.5 272.1 186.5 270.8L186.5 270.8Q186.5 269.7 186.9 269.0Q187.3 268.2 188.0 267.8Q188.7 267.3 189.6 267.1Q190.5 266.9 191.5 266.8L191.5 266.8Q192.6 266.7 193.3 266.6Q194.0 266.4 194.3 266.2Q194.6 266.0 194.6 265.6L194.6 265.6L194.6 265.5Q194.6 264.7 194.1 264.3Q193.6 263.9 192.7 263.9L192.7 263.9Q191.7 263.9 191.1 264.3Q190.5 264.7 190.4 265.4L190.4 265.4L187.0 265.1Q187.3 263.9 188.0 263.0Q188.8 262.1 189.9 261.7Q191.1 261.2 192.7 261.2L192.7 261.2Q193.8 261.2 194.8 261.5Q195.8 261.7 196.6 262.3Q197.4 262.8 197.8 263.6Q198.3 264.5 198.3 265.6L198.3 265.6L198.3 274.5L194.8 274.5L194.8 272.6L194.7 272.6Q194.4 273.3 193.9 273.7Q193.3 274.2 192.6 274.5Q191.9 274.7 190.9 274.7ZM191.9 272.2L191.9 272.2Q192.7 272.2 193.3 271.9Q194.0 271.6 194.3 271.0Q194.7 270.5 194.7 269.8L194.7 269.8L194.7 268.4Q194.5 268.5 194.2 268.6Q193.9 268.7 193.5 268.8Q193.2 268.8 192.8 268.9Q192.4 268.9 192.1 269.0L192.1 269.0Q191.5 269.1 191.0 269.3Q190.5 269.5 190.3 269.8Q190.0 270.2 190.0 270.7L190.0 270.7Q190.0 271.4 190.5 271.8Q191.1 272.2 191.9 272.2ZM212.0 265.1L212.0 265.1L208.6 265.3Q208.6 264.9 208.3 264.5Q208.0 264.2 207.5 264.0Q207.1 263.8 206.5 263.8L206.5 263.8Q205.6 263.8 205.0 264.1Q204.5 264.5 204.5 265.1L204.5 265.1Q204.5 265.5 204.8 265.9Q205.2 266.2 206.1 266.4L206.1 266.4L208.5 266.9Q210.4 267.3 211.3 268.1Q212.3 269.0 212.3 270.4L212.3 270.4Q212.3 271.7 211.5 272.7Q210.8 273.6 209.5 274.2Q208.1 274.7 206.4 274.7L206.4 274.7Q203.8 274.7 202.3 273.6Q200.8 272.5 200.5 270.7L200.5 270.7L204.1 270.5Q204.2 271.3 204.9 271.7Q205.5 272.1 206.4 272.1L206.4 272.1Q207.4 272.1 208.0 271.7Q208.6 271.4 208.6 270.8L208.6 270.8Q208.6 270.3 208.2 270.0Q207.8 269.6 206.9 269.5L206.9 269.5L204.6 269.0Q202.7 268.6 201.8 267.7Q200.8 266.7 200.8 265.3L200.8 265.3Q200.8 264.0 201.5 263.1Q202.2 262.2 203.5 261.7Q204.7 261.2 206.4 261.2L206.4 261.2Q208.9 261.2 210.3 262.3Q211.7 263.3 212.0 265.1ZM216.8 279.4L216.8 279.4Q216.1 279.4 215.5 279.3Q214.9 279.2 214.5 279.0L214.5 279.0L215.3 276.3Q216.0 276.5 216.5 276.5Q217.0 276.5 217.4 276.3Q217.8 276.0 218.0 275.4L218.0 275.4L218.2 274.8L213.5 261.4L217.3 261.4L220.0 271.0L220.2 271.0L222.9 261.4L226.8 261.4L221.7 275.9Q221.3 276.9 220.7 277.7Q220.1 278.5 219.1 278.9Q218.1 279.4 216.8 279.4Z M233.3 261.4L241.2 261.4L241.2 264.1L233.3 264.1L233.3 261.4ZM235.1 270.9L235.1 258.2L238.7 258.2L238.7 270.4Q238.7 270.9 238.8 271.2Q239.0 271.5 239.3 271.6Q239.5 271.7 239.9 271.7L239.9 271.7Q240.2 271.7 240.4 271.7Q240.7 271.6 240.8 271.6L240.8 271.6L241.4 274.3Q241.1 274.4 240.6 274.5Q240.1 274.6 239.4 274.6L239.4 274.6Q238.1 274.7 237.1 274.3Q236.1 273.9 235.6 273.0Q235.0 272.2 235.1 270.9L235.1 270.9ZM249.3 274.7L249.3 274.7Q247.3 274.7 245.9 273.9Q244.4 273.0 243.6 271.5Q242.8 270.0 242.8 268.0L242.8 268.0Q242.8 265.9 243.6 264.4Q244.4 262.9 245.9 262.1Q247.3 261.2 249.3 261.2L249.3 261.2Q251.3 261.2 252.7 262.1Q254.2 262.9 254.9 264.4Q255.7 265.9 255.7 268.0L255.7 268.0Q255.7 270.0 254.9 271.5Q254.2 273.0 252.7 273.9Q251.3 274.7 249.3 274.7ZM249.3 271.9L249.3 271.9Q250.2 271.9 250.8 271.4Q251.4 270.9 251.7 270.0Q252.0 269.1 252.0 267.9L252.0 267.9Q252.0 266.8 251.7 265.9Q251.4 265.0 250.8 264.5Q250.2 264.0 249.3 264.0L249.3 264.0Q248.4 264.0 247.8 264.5Q247.2 265.0 246.8 265.9Q246.5 266.8 246.5 267.9L246.5 267.9Q246.5 269.1 246.8 270.0Q247.2 270.9 247.8 271.4Q248.4 271.9 249.3 271.9Z M272.2 268.9L272.2 268.9L272.2 261.4L275.8 261.4L275.8 274.5L272.3 274.5L272.3 272.1L272.2 272.1Q271.8 273.2 270.7 273.9Q269.7 274.6 268.2 274.6L268.2 274.6Q266.9 274.6 265.9 274.0Q264.9 273.4 264.4 272.3Q263.8 271.2 263.8 269.7L263.8 269.7L263.8 261.4L267.4 261.4L267.4 269.1Q267.4 270.2 268.1 270.9Q268.7 271.6 269.7 271.6L269.7 271.6Q270.4 271.6 270.9 271.3Q271.5 271.0 271.9 270.4Q272.2 269.8 272.2 268.9ZM289.6 265.1L289.6 265.1L286.3 265.3Q286.2 264.9 285.9 264.5Q285.6 264.2 285.2 264.0Q284.7 263.8 284.1 263.8L284.1 263.8Q283.3 263.8 282.7 264.1Q282.1 264.5 282.1 265.1L282.1 265.1Q282.1 265.5 282.5 265.9Q282.9 266.2 283.8 266.4L283.8 266.4L286.1 266.9Q288.0 267.3 289.0 268.1Q289.9 269.0 289.9 270.4L289.9 270.4Q289.9 271.7 289.2 272.7Q288.4 273.6 287.1 274.2Q285.8 274.7 284.1 274.7L284.1 274.7Q281.5 274.7 280.0 273.6Q278.4 272.5 278.1 270.7L278.1 270.7L281.7 270.5Q281.9 271.3 282.5 271.7Q283.1 272.1 284.1 272.1L284.1 272.1Q285.1 272.1 285.6 271.7Q286.2 271.4 286.2 270.8L286.2 270.8Q286.2 270.3 285.8 270.0Q285.4 269.6 284.5 269.5L284.5 269.5L282.3 269.0Q280.4 268.6 279.4 267.7Q278.5 266.7 278.5 265.3L278.5 265.3Q278.5 264.0 279.2 263.1Q279.9 262.2 281.1 261.7Q282.4 261.2 284.0 261.2L284.0 261.2Q286.5 261.2 288.0 262.3Q289.4 263.3 289.6 265.1ZM298.2 274.7L298.2 274.7Q296.2 274.7 294.7 273.9Q293.3 273.1 292.5 271.6Q291.7 270.0 291.7 268.0L291.7 268.0Q291.7 266.0 292.5 264.4Q293.3 262.9 294.7 262.1Q296.1 261.2 298.0 261.2L298.0 261.2Q299.3 261.2 300.4 261.6Q301.6 262.0 302.4 262.9Q303.2 263.7 303.7 264.9Q304.2 266.2 304.2 267.9L304.2 267.9L304.2 268.8L293.1 268.8L293.1 266.6L300.8 266.6Q300.8 265.8 300.4 265.2Q300.1 264.6 299.5 264.3Q298.9 263.9 298.1 263.9L298.1 263.9Q297.3 263.9 296.6 264.3Q296.0 264.7 295.6 265.3Q295.3 265.9 295.3 266.7L295.3 266.7L295.3 268.9Q295.3 269.8 295.6 270.5Q296.0 271.2 296.7 271.6Q297.3 272.0 298.2 272.0L298.2 272.0Q298.8 272.0 299.3 271.8Q299.8 271.7 300.2 271.3Q300.6 271.0 300.8 270.5L300.8 270.5L304.1 270.7Q303.9 271.9 303.1 272.8Q302.3 273.7 301.0 274.2Q299.8 274.7 298.2 274.7Z M318.1 274.7L318.1 274.7Q316.1 274.7 314.6 273.9Q313.2 273.1 312.4 271.6Q311.6 270.0 311.6 268.0L311.6 268.0Q311.6 266.0 312.4 264.4Q313.2 262.9 314.6 262.1Q316.0 261.2 317.9 261.2L317.9 261.2Q319.2 261.2 320.4 261.6Q321.5 262.0 322.3 262.9Q323.2 263.7 323.6 264.9Q324.1 266.2 324.1 267.9L324.1 267.9L324.1 268.8L313.0 268.8L313.0 266.6L320.7 266.6Q320.7 265.8 320.3 265.2Q320.0 264.6 319.4 264.3Q318.8 263.9 318.0 263.9L318.0 263.9Q317.2 263.9 316.5 264.3Q315.9 264.7 315.5 265.3Q315.2 265.9 315.2 266.7L315.2 266.7L315.2 268.9Q315.2 269.8 315.5 270.5Q315.9 271.2 316.6 271.6Q317.2 272.0 318.1 272.0L318.1 272.0Q318.7 272.0 319.3 271.8Q319.8 271.7 320.1 271.3Q320.5 271.0 320.7 270.5L320.7 270.5L324.0 270.7Q323.8 271.9 323.0 272.8Q322.2 273.7 320.9 274.2Q319.7 274.7 318.1 274.7ZM331.3 274.7L331.3 274.7Q329.8 274.7 328.6 273.9Q327.4 273.1 326.7 271.6Q326.0 270.1 326.0 267.9L326.0 267.9Q326.0 265.7 326.7 264.2Q327.4 262.7 328.6 261.9Q329.8 261.2 331.3 261.2L331.3 261.2Q332.4 261.2 333.1 261.6Q333.9 261.9 334.3 262.5Q334.8 263.0 335.0 263.6L335.0 263.6L335.1 263.6L335.1 257.0L338.7 257.0L338.7 274.5L335.2 274.5L335.2 272.4L335.0 272.4Q334.7 272.9 334.3 273.4Q333.8 274.0 333.1 274.3Q332.3 274.7 331.3 274.7ZM332.4 271.8L332.4 271.8Q333.3 271.8 333.9 271.3Q334.5 270.8 334.9 270.0Q335.2 269.1 335.2 267.9L335.2 267.9Q335.2 266.8 334.9 265.9Q334.5 265.0 333.9 264.6Q333.3 264.1 332.4 264.1L332.4 264.1Q331.5 264.1 330.9 264.6Q330.3 265.1 330.0 265.9Q329.7 266.8 329.7 267.9L329.7 267.9Q329.7 269.1 330.0 269.9Q330.3 270.8 330.9 271.3Q331.5 271.8 332.4 271.8ZM345.3 274.5L341.7 274.5L341.7 261.4L345.3 261.4L345.3 274.5ZM343.5 259.7L343.5 259.7Q342.7 259.7 342.1 259.1Q341.6 258.6 341.6 257.8L341.6 257.8Q341.6 257.1 342.1 256.6Q342.7 256.0 343.5 256.0L343.5 256.0Q344.3 256.0 344.9 256.6Q345.5 257.1 345.5 257.8L345.5 257.8Q345.5 258.6 344.9 259.1Q344.3 259.7 343.5 259.7ZM347.3 261.4L355.2 261.4L355.2 264.1L347.3 264.1L347.3 261.4ZM349.1 270.9L349.1 258.2L352.7 258.2L352.7 270.4Q352.7 270.9 352.9 271.2Q353.0 271.5 353.3 271.6Q353.6 271.7 354.0 271.7L354.0 271.7Q354.2 271.7 354.5 271.7Q354.7 271.6 354.9 271.6L354.9 271.6L355.4 274.3Q355.2 274.4 354.7 274.5Q354.2 274.6 353.5 274.6L353.5 274.6Q352.2 274.7 351.2 274.3Q350.2 273.9 349.6 273.0Q349.1 272.2 349.1 270.9L349.1 270.9ZM363.3 274.7L363.3 274.7Q361.4 274.7 359.9 273.9Q358.5 273.0 357.7 271.5Q356.9 270.0 356.9 268.0L356.9 268.0Q356.9 265.9 357.7 264.4Q358.5 262.9 359.9 262.1Q361.4 261.2 363.3 261.2L363.3 261.2Q365.3 261.2 366.8 262.1Q368.2 262.9 369.0 264.4Q369.8 265.9 369.8 268.0L369.8 268.0Q369.8 270.0 369.0 271.5Q368.2 273.0 366.8 273.9Q365.3 274.7 363.3 274.7ZM363.4 271.9L363.4 271.9Q364.3 271.9 364.9 271.4Q365.5 270.9 365.8 270.0Q366.1 269.1 366.1 267.9L366.1 267.9Q366.1 266.8 365.8 265.9Q365.5 265.0 364.9 264.5Q364.3 264.0 363.4 264.0L363.4 264.0Q362.4 264.0 361.8 264.5Q361.2 265.0 360.9 265.9Q360.6 266.8 360.6 267.9L360.6 267.9Q360.6 269.1 360.9 270.0Q361.2 270.9 361.8 271.4Q362.4 271.9 363.4 271.9ZM375.8 274.5L372.2 274.5L372.2 261.4L375.7 261.4L375.7 263.7L375.8 263.7Q376.2 262.4 377.0 261.8Q377.9 261.2 379.0 261.2L379.0 261.2Q379.2 261.2 379.5 261.2Q379.9 261.3 380.1 261.3L380.1 261.3L380.1 264.5Q379.8 264.5 379.4 264.4Q378.9 264.3 378.6 264.3L378.6 264.3Q377.8 264.3 377.1 264.7Q376.5 265.0 376.1 265.6Q375.8 266.3 375.8 267.1L375.8 267.1L375.8 274.5Z M386.6 261.4L394.7 261.4L394.7 264.1L386.6 264.1L386.6 261.4ZM392.1 274.5L388.5 274.5L388.5 260.4Q388.5 259.0 389.0 258.1Q389.6 257.1 390.6 256.7Q391.5 256.2 392.8 256.2L392.8 256.2Q393.6 256.2 394.3 256.3Q395.0 256.4 395.3 256.5L395.3 256.5L394.7 259.3Q394.5 259.2 394.2 259.1Q393.9 259.1 393.5 259.1L393.5 259.1Q392.7 259.1 392.4 259.5Q392.1 259.8 392.1 260.5L392.1 260.5L392.1 274.5ZM402.4 274.7L402.4 274.7Q400.4 274.7 398.9 273.9Q397.5 273.0 396.7 271.5Q395.9 270.0 395.9 268.0L395.9 268.0Q395.9 265.9 396.7 264.4Q397.5 262.9 398.9 262.1Q400.4 261.2 402.4 261.2L402.4 261.2Q404.4 261.2 405.8 262.1Q407.3 262.9 408.0 264.4Q408.8 265.9 408.8 268.0L408.8 268.0Q408.8 270.0 408.0 271.5Q407.3 273.0 405.8 273.9Q404.4 274.7 402.4 274.7ZM402.4 271.9L402.4 271.9Q403.3 271.9 403.9 271.4Q404.5 270.9 404.8 270.0Q405.1 269.1 405.1 267.9L405.1 267.9Q405.1 266.8 404.8 265.9Q404.5 265.0 403.9 264.5Q403.3 264.0 402.4 264.0L402.4 264.0Q401.5 264.0 400.9 264.5Q400.2 265.0 399.9 265.9Q399.6 266.8 399.6 267.9L399.6 267.9Q399.6 269.1 399.9 270.0Q400.2 270.9 400.9 271.4Q401.5 271.9 402.4 271.9ZM414.8 274.5L411.2 274.5L411.2 261.4L414.7 261.4L414.7 263.7L414.8 263.7Q415.2 262.4 416.0 261.8Q416.9 261.2 418.0 261.2L418.0 261.2Q418.3 261.2 418.6 261.2Q418.9 261.3 419.1 261.3L419.1 261.3L419.1 264.5Q418.9 264.5 418.4 264.4Q418.0 264.3 417.6 264.3L417.6 264.3Q416.8 264.3 416.2 264.7Q415.5 265.0 415.2 265.6Q414.8 266.3 414.8 267.1L414.8 267.1L414.8 274.5Z M432.9 274.7L432.9 274.7Q430.9 274.7 429.5 273.9Q428.0 273.0 427.3 271.5Q426.5 270.0 426.5 268.0L426.5 268.0Q426.5 266.0 427.3 264.4Q428.1 262.9 429.5 262.1Q430.9 261.2 432.9 261.2L432.9 261.2Q434.6 261.2 435.9 261.8Q437.2 262.4 438.0 263.6Q438.7 264.7 438.8 266.2L438.8 266.2L435.4 266.2Q435.2 265.2 434.6 264.6Q434.0 264.0 433.0 264.0L433.0 264.0Q432.1 264.0 431.5 264.5Q430.9 264.9 430.5 265.8Q430.2 266.7 430.2 267.9L430.2 267.9Q430.2 269.2 430.5 270.0Q430.9 270.9 431.5 271.4Q432.1 271.8 433.0 271.8L433.0 271.8Q433.6 271.8 434.1 271.6Q434.6 271.3 434.9 270.8Q435.3 270.4 435.4 269.7L435.4 269.7L438.8 269.7Q438.7 271.2 438.0 272.3Q437.2 273.4 436.0 274.1Q434.7 274.7 432.9 274.7ZM444.8 274.5L441.1 274.5L441.1 261.4L444.6 261.4L444.6 263.7L444.8 263.7Q445.1 262.4 446.0 261.8Q446.8 261.2 447.9 261.2L447.9 261.2Q448.2 261.2 448.5 261.2Q448.8 261.3 449.1 261.3L449.1 261.3L449.1 264.5Q448.8 264.5 448.4 264.4Q447.9 264.3 447.5 264.3L447.5 264.3Q446.7 264.3 446.1 264.7Q445.5 265.0 445.1 265.6Q444.8 266.3 444.8 267.1L444.8 267.1L444.8 274.5ZM456.2 274.7L456.2 274.7Q454.2 274.7 452.8 273.9Q451.4 273.0 450.6 271.5Q449.8 270.0 449.8 268.0L449.8 268.0Q449.8 265.9 450.6 264.4Q451.4 262.9 452.8 262.1Q454.2 261.2 456.2 261.2L456.2 261.2Q458.2 261.2 459.7 262.1Q461.1 262.9 461.9 264.4Q462.7 265.9 462.7 268.0L462.7 268.0Q462.7 270.0 461.9 271.5Q461.1 273.0 459.7 273.9Q458.2 274.7 456.2 274.7ZM456.2 271.9L456.2 271.9Q457.2 271.9 457.8 271.4Q458.4 270.9 458.7 270.0Q459.0 269.1 459.0 267.9L459.0 267.9Q459.0 266.8 458.7 265.9Q458.4 265.0 457.8 264.5Q457.2 264.0 456.2 264.0L456.2 264.0Q455.3 264.0 454.7 264.5Q454.1 265.0 453.8 265.9Q453.5 266.8 453.5 267.9L453.5 267.9Q453.5 269.1 453.8 270.0Q454.1 270.9 454.7 271.4Q455.3 271.9 456.2 271.9ZM468.7 266.9L468.7 266.9L468.7 274.5L465.0 274.5L465.0 261.4L468.5 261.4L468.5 263.7L468.7 263.7Q469.1 262.5 470.1 261.9Q471.1 261.2 472.6 261.2L472.6 261.2Q474.0 261.2 475.0 261.8Q476.0 262.4 476.5 263.5Q477.1 264.6 477.1 266.1L477.1 266.1L477.1 274.5L473.5 274.5L473.5 266.8Q473.5 265.6 472.9 264.9Q472.2 264.2 471.2 264.2L471.2 264.2Q470.4 264.2 469.9 264.5Q469.3 264.9 469.0 265.5Q468.7 266.1 468.7 266.9Z M492.1 274.7L492.1 274.7Q490.1 274.7 488.6 273.9Q487.2 273.1 486.4 271.6Q485.6 270.0 485.6 268.0L485.6 268.0Q485.6 266.0 486.4 264.4Q487.2 262.9 488.6 262.1Q490.0 261.2 492.0 261.2L492.0 261.2Q493.3 261.2 494.4 261.6Q495.5 262.0 496.3 262.9Q497.2 263.7 497.7 264.9Q498.1 266.2 498.1 267.9L498.1 267.9L498.1 268.8L487.1 268.8L487.1 266.6L494.7 266.6Q494.7 265.8 494.4 265.2Q494.0 264.6 493.4 264.3Q492.8 263.9 492.0 263.9L492.0 263.9Q491.2 263.9 490.6 264.3Q489.9 264.7 489.6 265.3Q489.2 265.9 489.2 266.7L489.2 266.7L489.2 268.9Q489.2 269.8 489.6 270.5Q489.9 271.2 490.6 271.6Q491.3 272.0 492.2 272.0L492.2 272.0Q492.8 272.0 493.3 271.8Q493.8 271.7 494.1 271.3Q494.5 271.0 494.7 270.5L494.7 270.5L498.0 270.7Q497.8 271.9 497.0 272.8Q496.2 273.7 495.0 274.2Q493.7 274.7 492.1 274.7ZM499.6 261.4L503.3 261.4L505.7 265.9L508.2 261.4L511.9 261.4L508.1 267.9L512.0 274.5L508.3 274.5L505.7 269.9L503.2 274.5L499.4 274.5L503.3 267.9L499.6 261.4ZM517.7 279.4L514.0 279.4L514.0 261.4L517.6 261.4L517.6 263.6L517.8 263.6Q518.0 263.0 518.5 262.5Q518.9 261.9 519.7 261.6Q520.4 261.2 521.5 261.2L521.5 261.2Q522.9 261.2 524.1 261.9Q525.4 262.7 526.1 264.2Q526.8 265.7 526.8 267.9L526.8 267.9Q526.8 270.1 526.1 271.6Q525.4 273.1 524.2 273.9Q523.0 274.7 521.5 274.7L521.5 274.7Q520.4 274.7 519.7 274.3Q519.0 274.0 518.5 273.4Q518.0 272.9 517.8 272.4L517.8 272.4L517.7 272.4L517.7 279.4ZM517.6 267.9L517.6 267.9Q517.6 269.1 517.9 270.0Q518.2 270.8 518.9 271.3Q519.5 271.8 520.3 271.8L520.3 271.8Q521.2 271.8 521.8 271.3Q522.5 270.8 522.8 269.9Q523.1 269.1 523.1 267.9L523.1 267.9Q523.1 266.8 522.8 265.9Q522.5 265.1 521.9 264.6Q521.2 264.1 520.3 264.1L520.3 264.1Q519.5 264.1 518.9 264.6Q518.2 265.0 517.9 265.9Q517.6 266.8 517.6 267.9ZM532.8 274.5L529.2 274.5L529.2 261.4L532.7 261.4L532.7 263.7L532.9 263.7Q533.2 262.4 534.1 261.8Q534.9 261.2 536.0 261.2L536.0 261.2Q536.3 261.2 536.6 261.2Q536.9 261.3 537.2 261.3L537.2 261.3L537.2 264.5Q536.9 264.5 536.5 264.4Q536.0 264.3 535.6 264.3L535.6 264.3Q534.8 264.3 534.2 264.7Q533.6 265.0 533.2 265.6Q532.8 266.3 532.8 267.1L532.8 267.1L532.8 274.5ZM544.4 274.7L544.4 274.7Q542.4 274.7 540.9 273.9Q539.5 273.1 538.7 271.6Q537.9 270.0 537.9 268.0L537.9 268.0Q537.9 266.0 538.7 264.4Q539.5 262.9 540.9 262.1Q542.3 261.2 544.2 261.2L544.2 261.2Q545.5 261.2 546.7 261.6Q547.8 262.0 548.6 262.9Q549.5 263.7 549.9 264.9Q550.4 266.2 550.4 267.9L550.4 267.9L550.4 268.8L539.3 268.8L539.3 266.6L547.0 266.6Q547.0 265.8 546.6 265.2Q546.3 264.6 545.7 264.3Q545.1 263.9 544.3 263.9L544.3 263.9Q543.5 263.9 542.8 264.3Q542.2 264.7 541.8 265.3Q541.5 265.9 541.5 266.7L541.5 266.7L541.5 268.9Q541.5 269.8 541.8 270.5Q542.2 271.2 542.9 271.6Q543.5 272.0 544.4 272.0L544.4 272.0Q545.0 272.0 545.5 271.8Q546.1 271.7 546.4 271.3Q546.8 271.0 547.0 270.5L547.0 270.5L550.3 270.7Q550.1 271.9 549.3 272.8Q548.5 273.7 547.2 274.2Q546 274.7 544.4 274.7ZM563.7 265.1L563.7 265.1L560.3 265.3Q560.2 264.9 560.0 264.5Q559.7 264.2 559.2 264.0Q558.8 263.8 558.1 263.8L558.1 263.8Q557.3 263.8 556.7 264.1Q556.1 264.5 556.1 265.1L556.1 265.1Q556.1 265.5 556.5 265.9Q556.9 266.2 557.8 266.4L557.8 266.4L560.2 266.9Q562.1 267.3 563.0 268.1Q563.9 269.0 563.9 270.4L563.9 270.4Q563.9 271.7 563.2 272.7Q562.4 273.6 561.1 274.2Q559.8 274.7 558.1 274.7L558.1 274.7Q555.5 274.7 554.0 273.6Q552.4 272.5 552.2 270.7L552.2 270.7L555.8 270.5Q555.9 271.3 556.5 271.7Q557.2 272.1 558.1 272.1L558.1 272.1Q559.1 272.1 559.7 271.7Q560.3 271.4 560.3 270.8L560.3 270.8Q560.3 270.3 559.8 270.0Q559.4 269.6 558.6 269.5L558.6 269.5L556.3 269.0Q554.4 268.6 553.5 267.7Q552.5 266.7 552.5 265.3L552.5 265.3Q552.5 264.0 553.2 263.1Q553.9 262.2 555.1 261.7Q556.4 261.2 558.1 261.2L558.1 261.2Q560.6 261.2 562.0 262.3Q563.4 263.3 563.7 265.1ZM577.1 265.1L577.1 265.1L573.8 265.3Q573.7 264.9 573.4 264.5Q573.2 264.2 572.7 264.0Q572.3 263.8 571.6 263.8L571.6 263.8Q570.8 263.8 570.2 264.1Q569.6 264.5 569.6 265.1L569.6 265.1Q569.6 265.5 570.0 265.9Q570.4 266.2 571.3 266.4L571.3 266.4L573.6 266.9Q575.6 267.3 576.5 268.1Q577.4 269.0 577.4 270.4L577.4 270.4Q577.4 271.7 576.7 272.7Q575.9 273.6 574.6 274.2Q573.3 274.7 571.6 274.7L571.6 274.7Q569.0 274.7 567.5 273.6Q565.9 272.5 565.7 270.7L565.7 270.7L569.2 270.5Q569.4 271.3 570.0 271.7Q570.6 272.1 571.6 272.1L571.6 272.1Q572.6 272.1 573.1 271.7Q573.7 271.4 573.7 270.8L573.7 270.8Q573.7 270.3 573.3 270.0Q572.9 269.6 572.1 269.5L572.1 269.5L569.8 269.0Q567.9 268.6 566.9 267.7Q566.0 266.7 566.0 265.3L566.0 265.3Q566.0 264.0 566.7 263.1Q567.4 262.2 568.6 261.7Q569.9 261.2 571.6 261.2L571.6 261.2Q574.0 261.2 575.5 262.3Q576.9 263.3 577.1 265.1ZM583.4 274.5L579.7 274.5L579.7 261.4L583.4 261.4L583.4 274.5ZM581.5 259.7L581.5 259.7Q580.7 259.7 580.2 259.1Q579.6 258.6 579.6 257.8L579.6 257.8Q579.6 257.1 580.2 256.6Q580.7 256.0 581.5 256.0L581.5 256.0Q582.4 256.0 582.9 256.6Q583.5 257.1 583.5 257.8L583.5 257.8Q583.5 258.6 582.9 259.1Q582.4 259.7 581.5 259.7ZM592.2 274.7L592.2 274.7Q590.2 274.7 588.7 273.9Q587.3 273.0 586.5 271.5Q585.7 270.0 585.7 268.0L585.7 268.0Q585.7 265.9 586.5 264.4Q587.3 262.9 588.7 262.1Q590.2 261.2 592.2 261.2L592.2 261.2Q594.2 261.2 595.6 262.1Q597.0 262.9 597.8 264.4Q598.6 265.9 598.6 268.0L598.6 268.0Q598.6 270.0 597.8 271.5Q597.0 273.0 595.6 273.9Q594.2 274.7 592.2 274.7ZM592.2 271.9L592.2 271.9Q593.1 271.9 593.7 271.4Q594.3 270.9 594.6 270.0Q594.9 269.1 594.9 267.9L594.9 267.9Q594.9 266.8 594.6 265.9Q594.3 265.0 593.7 264.5Q593.1 264.0 592.2 264.0L592.2 264.0Q591.3 264.0 590.7 264.5Q590.0 265.0 589.7 265.9Q589.4 266.8 589.4 267.9L589.4 267.9Q589.4 269.1 589.7 270.0Q590.0 270.9 590.7 271.4Q591.3 271.9 592.2 271.9ZM604.6 266.9L604.6 266.9L604.6 274.5L601.0 274.5L601.0 261.4L604.4 261.4L604.4 263.7L604.6 263.7Q605.0 262.5 606.1 261.9Q607.1 261.2 608.5 261.2L608.5 261.2Q609.9 261.2 610.9 261.8Q611.9 262.4 612.5 263.5Q613.0 264.6 613.0 266.1L613.0 266.1L613.0 274.5L609.4 274.5L609.4 266.8Q609.4 265.6 608.8 264.9Q608.2 264.2 607.1 264.2L607.1 264.2Q606.4 264.2 605.8 264.5Q605.2 264.9 604.9 265.5Q604.6 266.1 604.6 266.9ZM626.8 265.1L626.8 265.1L623.5 265.3Q623.4 264.9 623.1 264.5Q622.8 264.2 622.4 264.0Q621.9 263.8 621.3 263.8L621.3 263.8Q620.4 263.8 619.9 264.1Q619.3 264.5 619.3 265.1L619.3 265.1Q619.3 265.5 619.7 265.9Q620.0 266.2 620.9 266.4L620.9 266.4L623.3 266.9Q625.2 267.3 626.2 268.1Q627.1 269.0 627.1 270.4L627.1 270.4Q627.1 271.7 626.3 272.7Q625.6 273.6 624.3 274.2Q623.0 274.7 621.3 274.7L621.3 274.7Q618.7 274.7 617.1 273.6Q615.6 272.5 615.3 270.7L615.3 270.7L618.9 270.5Q619.1 271.3 619.7 271.7Q620.3 272.1 621.3 272.1L621.3 272.1Q622.2 272.1 622.8 271.7Q623.4 271.4 623.4 270.8L623.4 270.8Q623.4 270.3 623.0 270.0Q622.6 269.6 621.7 269.5L621.7 269.5L619.5 269.0Q617.5 268.6 616.6 267.7Q615.7 266.7 615.7 265.3L615.7 265.3Q615.7 264.0 616.4 263.1Q617.0 262.2 618.3 261.7Q619.5 261.2 621.2 261.2L621.2 261.2Q623.7 261.2 625.1 262.3Q626.6 263.3 626.8 265.1Z " opacity="0.6"/><mask id="satori_om-id-2"><rect x="299" y="284" width="202" height="29" fill="#fff"/></mask><g opacity="0.6"></g><path fill="black" d="M306.9 306.5L303.0 306.5L299.5 293.4L303.1 293.4L305.2 302.2L305.3 302.2L307.4 293.4L311.0 293.4L313.2 302.1L313.3 302.1L315.3 293.4L318.9 293.4L315.4 306.5L311.5 306.5L309.3 298.2L309.1 298.2L306.9 306.5ZM324.5 306.5L320.9 306.5L320.9 293.4L324.5 293.4L324.5 306.5ZM322.7 291.7L322.7 291.7Q321.9 291.7 321.3 291.1Q320.7 290.6 320.7 289.8L320.7 289.8Q320.7 289.1 321.3 288.6Q321.9 288.0 322.7 288.0L322.7 288.0Q323.5 288.0 324.1 288.6Q324.6 289.1 324.6 289.8L324.6 289.8Q324.6 290.6 324.1 291.1Q323.5 291.7 322.7 291.7ZM326.5 293.4L334.3 293.4L334.3 296.1L326.5 296.1L326.5 293.4ZM328.2 302.9L328.2 290.2L331.9 290.2L331.9 302.4Q331.9 302.9 332.0 303.2Q332.2 303.5 332.5 303.6Q332.7 303.7 333.1 303.7L333.1 303.7Q333.4 303.7 333.6 303.7Q333.9 303.6 334.0 303.6L334.0 303.6L334.6 306.3Q334.3 306.4 333.8 306.5Q333.3 306.6 332.6 306.6L332.6 306.6Q331.3 306.7 330.3 306.3Q329.3 305.9 328.8 305.0Q328.2 304.2 328.2 302.9L328.2 302.9ZM340.6 298.9L340.6 298.9L340.6 306.5L337.0 306.5L337.0 289.0L340.5 289.0L340.5 295.7L340.7 295.7Q341.1 294.5 342.1 293.9Q343.1 293.2 344.6 293.2L344.6 293.2Q345.9 293.2 347.0 293.8Q348.0 294.4 348.5 295.5Q349.1 296.6 349.1 298.1L349.1 298.1L349.1 306.5L345.5 306.5L345.5 298.8Q345.5 297.6 344.9 296.9Q344.2 296.2 343.1 296.2L343.1 296.2Q342.4 296.2 341.8 296.5Q341.3 296.9 340.9 297.5Q340.6 298.1 340.6 298.9Z M363.2 306.7L363.2 306.7Q361.2 306.7 359.7 305.9Q358.3 305.1 357.5 303.6Q356.7 302.0 356.7 300.0L356.7 300.0Q356.7 298.0 357.5 296.4Q358.3 294.9 359.7 294.1Q361.1 293.2 363.1 293.2L363.1 293.2Q364.4 293.2 365.5 293.6Q366.6 294.0 367.5 294.9Q368.3 295.7 368.8 296.9Q369.2 298.2 369.2 299.9L369.2 299.9L369.2 300.8L358.2 300.8L358.2 298.6L365.8 298.6Q365.8 297.8 365.5 297.2Q365.1 296.6 364.5 296.3Q363.9 295.9 363.1 295.9L363.1 295.9Q362.3 295.9 361.7 296.3Q361.0 296.7 360.7 297.3Q360.3 297.9 360.3 298.7L360.3 298.7L360.3 300.9Q360.3 301.8 360.7 302.5Q361.0 303.2 361.7 303.6Q362.4 304.0 363.3 304.0L363.3 304.0Q363.9 304.0 364.4 303.8Q364.9 303.7 365.2 303.3Q365.6 303.0 365.8 302.5L365.8 302.5L369.2 302.7Q368.9 303.9 368.1 304.8Q367.3 305.7 366.1 306.2Q364.8 306.7 363.2 306.7ZM370.7 293.4L374.4 293.4L376.8 297.9L379.3 293.4L383.0 293.4L379.2 299.9L383.1 306.5L379.4 306.5L376.8 301.9L374.3 306.5L370.5 306.5L374.4 299.9L370.7 293.4ZM388.8 311.4L385.1 311.4L385.1 293.4L388.7 293.4L388.7 295.6L388.9 295.6Q389.1 295.0 389.6 294.5Q390.0 293.9 390.8 293.6Q391.5 293.2 392.6 293.2L392.6 293.2Q394.0 293.2 395.3 293.9Q396.5 294.7 397.2 296.2Q397.9 297.7 397.9 299.9L397.9 299.9Q397.9 302.1 397.2 303.6Q396.5 305.1 395.3 305.9Q394.1 306.7 392.6 306.7L392.6 306.7Q391.5 306.7 390.8 306.3Q390.1 306.0 389.6 305.4Q389.1 304.9 388.9 304.4L388.9 304.4L388.8 304.4L388.8 311.4ZM388.7 299.9L388.7 299.9Q388.7 301.1 389.0 302.0Q389.3 302.8 390.0 303.3Q390.6 303.8 391.5 303.8L391.5 303.8Q392.3 303.8 393.0 303.3Q393.6 302.8 393.9 301.9Q394.2 301.1 394.2 299.9L394.2 299.9Q394.2 298.8 393.9 297.9Q393.6 297.1 393.0 296.6Q392.3 296.1 391.5 296.1L391.5 296.1Q390.6 296.1 390.0 296.6Q389.3 297.0 389.0 297.9Q388.7 298.8 388.7 299.9ZM400.3 289.0L404.0 289.0L404.0 306.5L400.3 306.5L400.3 289.0ZM410.6 306.7L410.6 306.7Q409.3 306.7 408.4 306.3Q407.4 305.8 406.8 305.0Q406.2 304.1 406.2 302.8L406.2 302.8Q406.2 301.7 406.6 301.0Q407.0 300.2 407.7 299.8Q408.4 299.3 409.3 299.1Q410.2 298.9 411.2 298.8L411.2 298.8Q412.3 298.7 413.0 298.6Q413.7 298.4 414.0 298.2Q414.3 298.0 414.3 297.6L414.3 297.6L414.3 297.5Q414.3 296.7 413.8 296.3Q413.3 295.9 412.4 295.9L412.4 295.9Q411.4 295.9 410.8 296.3Q410.2 296.7 410.1 297.4L410.1 297.4L406.7 297.1Q407.0 295.9 407.7 295.0Q408.5 294.1 409.6 293.7Q410.8 293.2 412.4 293.2L412.4 293.2Q413.5 293.2 414.5 293.5Q415.5 293.7 416.3 294.3Q417.1 294.8 417.5 295.6Q418.0 296.5 418.0 297.6L418.0 297.6L418.0 306.5L414.5 306.5L414.5 304.6L414.4 304.6Q414.1 305.3 413.6 305.7Q413.0 306.2 412.3 306.5Q411.6 306.7 410.6 306.7ZM411.6 304.2L411.6 304.2Q412.4 304.2 413.0 303.9Q413.7 303.6 414.0 303.0Q414.4 302.5 414.4 301.8L414.4 301.8L414.4 300.4Q414.2 300.5 413.9 300.6Q413.6 300.7 413.2 300.8Q412.9 300.8 412.5 300.9Q412.1 300.9 411.8 301.0L411.8 301.0Q411.2 301.1 410.7 301.3Q410.2 301.5 410.0 301.8Q409.7 302.2 409.7 302.7L409.7 302.7Q409.7 303.4 410.3 303.8Q410.8 304.2 411.6 304.2ZM424.4 298.9L424.4 298.9L424.4 306.5L420.8 306.5L420.8 293.4L424.2 293.4L424.2 295.7L424.4 295.7Q424.8 294.5 425.9 293.9Q426.9 293.2 428.3 293.2L428.3 293.2Q429.7 293.2 430.7 293.8Q431.7 294.4 432.3 295.5Q432.8 296.6 432.8 298.1L432.8 298.1L432.8 306.5L429.2 306.5L429.2 298.8Q429.2 297.6 428.6 296.9Q428.0 296.2 426.9 296.2L426.9 296.2Q426.2 296.2 425.6 296.5Q425.0 296.9 424.7 297.5Q424.4 298.1 424.4 298.9ZM439.4 306.7L439.4 306.7Q438.2 306.7 437.2 306.3Q436.2 305.8 435.7 305.0Q435.1 304.1 435.1 302.8L435.1 302.8Q435.1 301.7 435.5 301.0Q435.9 300.2 436.6 299.8Q437.3 299.3 438.2 299.1Q439.0 298.9 440.0 298.8L440.0 298.8Q441.2 298.7 441.8 298.6Q442.5 298.4 442.9 298.2Q443.2 298.0 443.2 297.6L443.2 297.6L443.2 297.5Q443.2 296.7 442.7 296.3Q442.2 295.9 441.2 295.9L441.2 295.9Q440.3 295.9 439.7 296.3Q439.1 296.7 438.9 297.4L438.9 297.4L435.6 297.1Q435.8 295.9 436.6 295.0Q437.3 294.1 438.5 293.7Q439.7 293.2 441.3 293.2L441.3 293.2Q442.3 293.2 443.3 293.5Q444.3 293.7 445.1 294.3Q445.9 294.8 446.4 295.6Q446.8 296.5 446.8 297.6L446.8 297.6L446.8 306.5L443.4 306.5L443.4 304.6L443.3 304.6Q442.9 305.3 442.4 305.7Q441.9 306.2 441.2 306.5Q440.4 306.7 439.4 306.7ZM440.5 304.2L440.5 304.2Q441.3 304.2 441.9 303.9Q442.5 303.6 442.9 303.0Q443.2 302.5 443.2 301.8L443.2 301.8L443.2 300.4Q443.0 300.5 442.7 300.6Q442.4 300.7 442.1 300.8Q441.7 300.8 441.3 300.9Q441.0 300.9 440.7 301.0L440.7 301.0Q440.0 301.1 439.6 301.3Q439.1 301.5 438.8 301.8Q438.6 302.2 438.6 302.7L438.6 302.7Q438.6 303.4 439.1 303.8Q439.6 304.2 440.5 304.2ZM448.7 293.4L456.6 293.4L456.6 296.1L448.7 296.1L448.7 293.4ZM450.5 302.9L450.5 290.2L454.1 290.2L454.1 302.4Q454.1 302.9 454.3 303.2Q454.4 303.5 454.7 303.6Q455.0 303.7 455.4 303.7L455.4 303.7Q455.6 303.7 455.9 303.7Q456.1 303.6 456.3 303.6L456.3 303.6L456.8 306.3Q456.6 306.4 456.1 306.5Q455.6 306.6 454.9 306.6L454.9 306.6Q453.6 306.7 452.6 306.3Q451.6 305.9 451.0 305.0Q450.5 304.2 450.5 302.9L450.5 302.9ZM462.6 306.5L459.0 306.5L459.0 293.4L462.6 293.4L462.6 306.5ZM460.8 291.7L460.8 291.7Q460.0 291.7 459.4 291.1Q458.8 290.6 458.8 289.8L458.8 289.8Q458.8 289.1 459.4 288.6Q460.0 288.0 460.8 288.0L460.8 288.0Q461.6 288.0 462.2 288.6Q462.7 289.1 462.7 289.8L462.7 289.8Q462.7 290.6 462.2 291.1Q461.6 291.7 460.8 291.7ZM471.4 306.7L471.4 306.7Q469.4 306.7 468.0 305.9Q466.5 305.0 465.7 303.5Q465.0 302.0 465.0 300.0L465.0 300.0Q465.0 297.9 465.7 296.4Q466.5 294.9 468.0 294.1Q469.4 293.2 471.4 293.2L471.4 293.2Q473.4 293.2 474.8 294.1Q476.3 294.9 477.1 296.4Q477.8 297.9 477.8 300.0L477.8 300.0Q477.8 302.0 477.1 303.5Q476.3 305.0 474.8 305.9Q473.4 306.7 471.4 306.7ZM471.4 303.9L471.4 303.9Q472.3 303.9 472.9 303.4Q473.5 302.9 473.8 302.0Q474.2 301.1 474.2 299.9L474.2 299.9Q474.2 298.8 473.8 297.9Q473.5 297.0 472.9 296.5Q472.3 296.0 471.4 296.0L471.4 296.0Q470.5 296.0 469.9 296.5Q469.3 297.0 469.0 297.9Q468.6 298.8 468.6 299.9L468.6 299.9Q468.6 301.1 469.0 302.0Q469.3 302.9 469.9 303.4Q470.5 303.9 471.4 303.9ZM483.8 298.9L483.8 298.9L483.8 306.5L480.2 306.5L480.2 293.4L483.7 293.4L483.7 295.7L483.8 295.7Q484.3 294.5 485.3 293.9Q486.3 293.2 487.8 293.2L487.8 293.2Q489.1 293.2 490.1 293.8Q491.2 294.4 491.7 295.5Q492.3 296.6 492.3 298.1L492.3 298.1L492.3 306.5L488.6 306.5L488.6 298.8Q488.7 297.6 488.0 296.9Q487.4 296.2 486.3 296.2L486.3 296.2Q485.6 296.2 485.0 296.5Q484.5 296.9 484.2 297.5Q483.8 298.1 483.8 298.9ZM497.3 306.7L497.3 306.7Q496.4 306.7 495.8 306.1Q495.2 305.5 495.2 304.6L495.2 304.6Q495.2 303.8 495.8 303.2Q496.4 302.6 497.3 302.6L497.3 302.6Q498.1 302.6 498.7 303.2Q499.3 303.8 499.3 304.6L499.3 304.6Q499.3 305.2 499.0 305.7Q498.7 306.1 498.3 306.4Q497.8 306.7 497.3 306.7Z " opacity="0.6"/></svg>